// This code was created by pygmsh v4.3.6.
p0 = newp;
Point(p0) = {-1.0, -1.0, -1.0, 0.1};
p1 = newp;
Point(p1) = {1.0, -1.0, -1.0, 0.1};
p2 = newp;
Point(p2) = {1.0, 1.0, -1.0, 0.1};
p3 = newp;
Point(p3) = {-1.0, 1.0, -1.0, 0.1};
p4 = newp;
Point(p4) = {-1.0, -1.0, 1.0, 0.1};
p5 = newp;
Point(p5) = {1.0, -1.0, 1.0, 0.1};
p6 = newp;
Point(p6) = {1.0, 1.0, 1.0, 0.1};
p7 = newp;
Point(p7) = {-1.0, 1.0, 1.0, 0.1};
l0 = newl;
Line(l0) = {p0, p1};
l1 = newl;
Line(l1) = {p1, p2};
l2 = newl;
Line(l2) = {p2, p3};
l3 = newl;
Line(l3) = {p3, p0};
l4 = newl;
Line(l4) = {p4, p5};
l5 = newl;
Line(l5) = {p5, p6};
l6 = newl;
Line(l6) = {p6, p7};
l7 = newl;
Line(l7) = {p7, p4};
l8 = newl;
Line(l8) = {p0, p4};
l9 = newl;
Line(l9) = {p1, p5};
l10 = newl;
Line(l10) = {p2, p6};
l11 = newl;
Line(l11) = {p3, p7};
Physical Line(111) = {l0};
Physical Line(112) = {l1};
Physical Line(113) = {l2};
Physical Line(114) = {l3};
Physical Line(115) = {l4};
Physical Line(116) = {l5};
Physical Line(117) = {l6};
Physical Line(118) = {l7};
Physical Line(119) = {l8};
Physical Line(120) = {l9};
Physical Line(121) = {l10};
Physical Line(122) = {l11};
ll0 = newll;
Line Loop(ll0) = {l0, l1, l2, l3};
s0 = news;
Plane Surface(s0) = {ll0};
Physical Surface(11) = {s0};
ll1 = newll;
Line Loop(ll1) = {l4, l5, l6, l7};
s1 = news;
Plane Surface(s1) = {ll1};
Physical Surface(22) = {s1};
ll2 = newll;
Line Loop(ll2) = {l0, l9, -l4, -l8};
s2 = news;
Plane Surface(s2) = {ll2};
Physical Surface(33) = {s2};
ll3 = newll;
Line Loop(ll3) = {l1, l10, -l5, -l9};
s3 = news;
Plane Surface(s3) = {ll3};
Physical Surface(44) = {s3};
ll4 = newll;
Line Loop(ll4) = {l2, l11, -l6, -l10};
s4 = news;
Plane Surface(s4) = {ll4};
Physical Surface(55) = {s4};
ll5 = newll;
Line Loop(ll5) = {l3, l8, -l7, -l11};
s5 = news;
Plane Surface(s5) = {ll5};
Physical Surface(66) = {s5};
sl0 = news;
Surface Loop(sl0) = {s0,s1,s2,s3,s4,s5};
vol0 = newv;
Volume(vol0) = {sl0};
Physical Volume(9999) = {vol0};